<mxfile host="app.diagrams.net" modified="2020-11-24T12:27:49.975Z" agent="5.0 (Windows NT 10.0; Win64; x64) AppleWebKit/537.36 (KHTML, like Gecko) Chrome/87.0.4280.66 Safari/537.36" etag="FPuzjAOiPYhLPPHpp8L9" version="13.10.2" type="github">
  <diagram id="prtHgNgQTEPvFCAcTncT" name="Page-1">
    <mxGraphModel dx="1195" dy="1809" grid="1" gridSize="10" guides="1" tooltips="1" connect="1" arrows="1" fold="1" page="1" pageScale="1" pageWidth="827" pageHeight="1169" math="0" shadow="0">
      <root>
        <mxCell id="0" />
        <mxCell id="1" parent="0" />
        <mxCell id="y3q0SapRuHp2MjYkqR5U-1" value="" style="rounded=0;whiteSpace=wrap;html=1;" parent="1" vertex="1">
          <mxGeometry x="80" y="100" width="70" height="40" as="geometry" />
        </mxCell>
        <mxCell id="y3q0SapRuHp2MjYkqR5U-2" value="index.js&lt;br&gt;" style="text;html=1;strokeColor=none;fillColor=none;align=center;verticalAlign=middle;whiteSpace=wrap;rounded=0;" parent="1" vertex="1">
          <mxGeometry x="70" y="100" width="90" height="40" as="geometry" />
        </mxCell>
        <mxCell id="y3q0SapRuHp2MjYkqR5U-3" value="" style="endArrow=classic;html=1;" parent="1" target="y3q0SapRuHp2MjYkqR5U-1" edge="1">
          <mxGeometry width="50" height="50" relative="1" as="geometry">
            <mxPoint x="180" y="60" as="sourcePoint" />
            <mxPoint x="180" y="110" as="targetPoint" />
          </mxGeometry>
        </mxCell>
        <mxCell id="y3q0SapRuHp2MjYkqR5U-4" value="" style="rounded=0;whiteSpace=wrap;html=1;" parent="1" vertex="1">
          <mxGeometry x="140" y="30" width="80" height="30" as="geometry" />
        </mxCell>
        <mxCell id="y3q0SapRuHp2MjYkqR5U-5" value="state.js" style="text;html=1;strokeColor=none;fillColor=none;align=center;verticalAlign=middle;whiteSpace=wrap;rounded=0;" parent="1" vertex="1">
          <mxGeometry x="160" y="35" width="40" height="20" as="geometry" />
        </mxCell>
        <mxCell id="y3q0SapRuHp2MjYkqR5U-9" value="BLL(Bussiness logic layer)" style="text;html=1;strokeColor=none;fillColor=none;align=center;verticalAlign=middle;whiteSpace=wrap;rounded=0;" parent="1" vertex="1">
          <mxGeometry x="160" width="40" height="20" as="geometry" />
        </mxCell>
        <mxCell id="y3q0SapRuHp2MjYkqR5U-13" value="" style="endArrow=classic;html=1;" parent="1" source="y3q0SapRuHp2MjYkqR5U-2" edge="1">
          <mxGeometry width="50" height="50" relative="1" as="geometry">
            <mxPoint x="300" y="160" as="sourcePoint" />
            <mxPoint x="280" y="160" as="targetPoint" />
            <Array as="points">
              <mxPoint x="140" y="118" />
            </Array>
          </mxGeometry>
        </mxCell>
        <mxCell id="y3q0SapRuHp2MjYkqR5U-17" value="" style="edgeStyle=orthogonalEdgeStyle;rounded=0;orthogonalLoop=1;jettySize=auto;html=1;" parent="1" source="y3q0SapRuHp2MjYkqR5U-14" target="y3q0SapRuHp2MjYkqR5U-16" edge="1">
          <mxGeometry relative="1" as="geometry" />
        </mxCell>
        <mxCell id="y3q0SapRuHp2MjYkqR5U-29" style="edgeStyle=orthogonalEdgeStyle;rounded=0;orthogonalLoop=1;jettySize=auto;html=1;" parent="1" source="y3q0SapRuHp2MjYkqR5U-14" target="y3q0SapRuHp2MjYkqR5U-24" edge="1">
          <mxGeometry relative="1" as="geometry">
            <Array as="points">
              <mxPoint x="340" y="250" />
              <mxPoint x="420" y="250" />
            </Array>
          </mxGeometry>
        </mxCell>
        <mxCell id="y3q0SapRuHp2MjYkqR5U-30" style="edgeStyle=orthogonalEdgeStyle;rounded=0;orthogonalLoop=1;jettySize=auto;html=1;entryX=0.5;entryY=0;entryDx=0;entryDy=0;" parent="1" source="y3q0SapRuHp2MjYkqR5U-14" target="y3q0SapRuHp2MjYkqR5U-27" edge="1">
          <mxGeometry relative="1" as="geometry">
            <mxPoint x="640" y="270" as="targetPoint" />
            <Array as="points">
              <mxPoint x="340" y="250" />
              <mxPoint x="710" y="250" />
            </Array>
          </mxGeometry>
        </mxCell>
        <mxCell id="y3q0SapRuHp2MjYkqR5U-31" style="edgeStyle=orthogonalEdgeStyle;rounded=0;orthogonalLoop=1;jettySize=auto;html=1;entryX=0.5;entryY=0;entryDx=0;entryDy=0;" parent="1" source="y3q0SapRuHp2MjYkqR5U-14" target="y3q0SapRuHp2MjYkqR5U-25" edge="1">
          <mxGeometry relative="1" as="geometry">
            <mxPoint x="560" y="270" as="targetPoint" />
            <Array as="points">
              <mxPoint x="340" y="250" />
              <mxPoint x="560" y="250" />
              <mxPoint x="560" y="290" />
              <mxPoint x="550" y="290" />
            </Array>
          </mxGeometry>
        </mxCell>
        <mxCell id="y3q0SapRuHp2MjYkqR5U-32" style="edgeStyle=orthogonalEdgeStyle;rounded=0;orthogonalLoop=1;jettySize=auto;html=1;" parent="1" source="y3q0SapRuHp2MjYkqR5U-14" target="y3q0SapRuHp2MjYkqR5U-26" edge="1">
          <mxGeometry relative="1" as="geometry">
            <Array as="points">
              <mxPoint x="340" y="250" />
              <mxPoint x="880" y="250" />
            </Array>
          </mxGeometry>
        </mxCell>
        <mxCell id="y3q0SapRuHp2MjYkqR5U-33" style="edgeStyle=orthogonalEdgeStyle;rounded=0;orthogonalLoop=1;jettySize=auto;html=1;" parent="1" source="y3q0SapRuHp2MjYkqR5U-14" target="y3q0SapRuHp2MjYkqR5U-28" edge="1">
          <mxGeometry relative="1" as="geometry">
            <Array as="points">
              <mxPoint x="340" y="250" />
              <mxPoint x="1030" y="250" />
            </Array>
          </mxGeometry>
        </mxCell>
        <mxCell id="y3q0SapRuHp2MjYkqR5U-14" value="" style="rounded=0;whiteSpace=wrap;html=1;" parent="1" vertex="1">
          <mxGeometry x="280" y="130" width="120" height="60" as="geometry" />
        </mxCell>
        <mxCell id="y3q0SapRuHp2MjYkqR5U-15" value="App.js" style="text;html=1;strokeColor=none;fillColor=none;align=center;verticalAlign=middle;whiteSpace=wrap;rounded=0;" parent="1" vertex="1">
          <mxGeometry x="320" y="150" width="40" height="20" as="geometry" />
        </mxCell>
        <mxCell id="y3q0SapRuHp2MjYkqR5U-20" style="edgeStyle=orthogonalEdgeStyle;rounded=0;orthogonalLoop=1;jettySize=auto;html=1;entryX=0.5;entryY=0;entryDx=0;entryDy=0;" parent="1" source="y3q0SapRuHp2MjYkqR5U-16" target="y3q0SapRuHp2MjYkqR5U-19" edge="1">
          <mxGeometry relative="1" as="geometry" />
        </mxCell>
        <mxCell id="y3q0SapRuHp2MjYkqR5U-22" style="edgeStyle=orthogonalEdgeStyle;rounded=0;orthogonalLoop=1;jettySize=auto;html=1;" parent="1" source="y3q0SapRuHp2MjYkqR5U-16" target="y3q0SapRuHp2MjYkqR5U-21" edge="1">
          <mxGeometry relative="1" as="geometry" />
        </mxCell>
        <mxCell id="y3q0SapRuHp2MjYkqR5U-16" value="BrowserRouter" style="whiteSpace=wrap;html=1;" parent="1" vertex="1">
          <mxGeometry x="280" y="220" width="120" height="60" as="geometry" />
        </mxCell>
        <mxCell id="y3q0SapRuHp2MjYkqR5U-19" value="Header.jsx" style="whiteSpace=wrap;html=1;" parent="1" vertex="1">
          <mxGeometry x="30" y="310" width="120" height="60" as="geometry" />
        </mxCell>
        <mxCell id="y3q0SapRuHp2MjYkqR5U-21" value="Nav.jsx" style="whiteSpace=wrap;html=1;" parent="1" vertex="1">
          <mxGeometry x="170" y="310" width="120" height="60" as="geometry" />
        </mxCell>
        <mxCell id="y3q0SapRuHp2MjYkqR5U-36" style="edgeStyle=orthogonalEdgeStyle;rounded=0;orthogonalLoop=1;jettySize=auto;html=1;entryX=0.5;entryY=0;entryDx=0;entryDy=0;" parent="1" source="y3q0SapRuHp2MjYkqR5U-24" target="y3q0SapRuHp2MjYkqR5U-34" edge="1">
          <mxGeometry relative="1" as="geometry" />
        </mxCell>
        <mxCell id="y3q0SapRuHp2MjYkqR5U-37" style="edgeStyle=orthogonalEdgeStyle;rounded=0;orthogonalLoop=1;jettySize=auto;html=1;entryX=0.5;entryY=0;entryDx=0;entryDy=0;" parent="1" source="y3q0SapRuHp2MjYkqR5U-24" target="y3q0SapRuHp2MjYkqR5U-35" edge="1">
          <mxGeometry relative="1" as="geometry" />
        </mxCell>
        <mxCell id="y3q0SapRuHp2MjYkqR5U-24" value="Profile.jsx" style="whiteSpace=wrap;html=1;" parent="1" vertex="1">
          <mxGeometry x="340" y="310" width="120" height="60" as="geometry" />
        </mxCell>
        <mxCell id="y3q0SapRuHp2MjYkqR5U-43" style="edgeStyle=orthogonalEdgeStyle;rounded=0;orthogonalLoop=1;jettySize=auto;html=1;entryX=0.5;entryY=0;entryDx=0;entryDy=0;" parent="1" source="y3q0SapRuHp2MjYkqR5U-25" target="y3q0SapRuHp2MjYkqR5U-40" edge="1">
          <mxGeometry relative="1" as="geometry" />
        </mxCell>
        <mxCell id="y3q0SapRuHp2MjYkqR5U-46" style="edgeStyle=orthogonalEdgeStyle;rounded=0;orthogonalLoop=1;jettySize=auto;html=1;entryX=0.5;entryY=0;entryDx=0;entryDy=0;" parent="1" source="y3q0SapRuHp2MjYkqR5U-25" target="y3q0SapRuHp2MjYkqR5U-41" edge="1">
          <mxGeometry relative="1" as="geometry">
            <mxPoint x="610" y="410" as="targetPoint" />
          </mxGeometry>
        </mxCell>
        <mxCell id="y3q0SapRuHp2MjYkqR5U-25" value="Dialogs.jsx" style="whiteSpace=wrap;html=1;" parent="1" vertex="1">
          <mxGeometry x="490" y="310" width="120" height="60" as="geometry" />
        </mxCell>
        <mxCell id="y3q0SapRuHp2MjYkqR5U-26" value="News.jsx" style="whiteSpace=wrap;html=1;" parent="1" vertex="1">
          <mxGeometry x="820" y="310" width="120" height="60" as="geometry" />
        </mxCell>
        <mxCell id="y3q0SapRuHp2MjYkqR5U-27" value="Music.jsx" style="whiteSpace=wrap;html=1;" parent="1" vertex="1">
          <mxGeometry x="650" y="310" width="120" height="60" as="geometry" />
        </mxCell>
        <mxCell id="y3q0SapRuHp2MjYkqR5U-28" value="Setting.jsx" style="whiteSpace=wrap;html=1;" parent="1" vertex="1">
          <mxGeometry x="970" y="310" width="120" height="60" as="geometry" />
        </mxCell>
        <mxCell id="y3q0SapRuHp2MjYkqR5U-34" value="ProfileInf.jsx" style="rounded=0;whiteSpace=wrap;html=1;" parent="1" vertex="1">
          <mxGeometry x="310" y="420" width="100" height="50" as="geometry" />
        </mxCell>
        <mxCell id="y3q0SapRuHp2MjYkqR5U-39" style="edgeStyle=orthogonalEdgeStyle;rounded=0;orthogonalLoop=1;jettySize=auto;html=1;" parent="1" source="y3q0SapRuHp2MjYkqR5U-35" target="y3q0SapRuHp2MjYkqR5U-38" edge="1">
          <mxGeometry relative="1" as="geometry" />
        </mxCell>
        <mxCell id="y3q0SapRuHp2MjYkqR5U-35" value="MyPost.jsx" style="whiteSpace=wrap;html=1;" parent="1" vertex="1">
          <mxGeometry x="420" y="420" width="90" height="50" as="geometry" />
        </mxCell>
        <mxCell id="y3q0SapRuHp2MjYkqR5U-38" value="Post.jsx&lt;br&gt;" style="whiteSpace=wrap;html=1;" parent="1" vertex="1">
          <mxGeometry x="427.5" y="500" width="75" height="25" as="geometry" />
        </mxCell>
        <mxCell id="y3q0SapRuHp2MjYkqR5U-40" value="ItemDialogs.jsx" style="whiteSpace=wrap;html=1;" parent="1" vertex="1">
          <mxGeometry x="520" y="420" width="80" height="50" as="geometry" />
        </mxCell>
        <mxCell id="y3q0SapRuHp2MjYkqR5U-41" value="Message.jsx" style="whiteSpace=wrap;html=1;" parent="1" vertex="1">
          <mxGeometry x="610" y="420" width="80" height="50" as="geometry" />
        </mxCell>
        <mxCell id="oOJqsWEHcOqZVLE7p5k9-1" value="UI(Usser Interface)" style="text;html=1;align=center;verticalAlign=middle;resizable=0;points=[];autosize=1;" vertex="1" parent="1">
          <mxGeometry x="270" y="110" width="120" height="20" as="geometry" />
        </mxCell>
      </root>
    </mxGraphModel>
  </diagram>
</mxfile>
